<svg width="15" height="15" viewBox="0 0 15 15" fill="none" xmlns="http://www.w3.org/2000/svg">
<g clip-path="url(#clip0_138_296)">
<path d="M14.9009 7.25966L11.4919 3.85061C11.3694 3.70762 11.1542 3.69095 11.0112 3.81344C10.8682 3.93589 10.8516 4.15111 10.974 4.2941C10.9855 4.30743 10.9979 4.31988 11.0112 4.33128L13.8373 7.16078H0.340923C0.152665 7.16078 3.05176e-05 7.31341 3.05176e-05 7.5017C3.05176e-05 7.68999 0.152665 7.8426 0.340923 7.8426H13.8373L11.0112 10.6687C10.8682 10.7911 10.8516 11.0063 10.974 11.1493C11.0965 11.2923 11.3117 11.309 11.4547 11.1865C11.468 11.1751 11.4805 11.1627 11.4919 11.1493L14.9009 7.74029C15.0331 7.60737 15.0331 7.39263 14.9009 7.25966Z" fill="#D2334D"/>
</g>
<defs>
<clipPath id="clip0_138_296">
<rect width="15" height="15" fill="white"/>
</clipPath>
</defs>
</svg>
