<svg width="29" height="29" viewBox="0 0 29 29" fill="none" xmlns="http://www.w3.org/2000/svg">
<path d="M10.2518 24.6952C10.2518 26.1006 11.3952 27.2439 12.8006 27.2439C14.206 27.2439 15.3493 26.1006 15.3493 24.6952C15.3493 23.2897 14.206 22.1464 12.8006 22.1464C11.3952 22.1464 10.2518 23.2897 10.2518 24.6952ZM12.8006 23.8456C13.269 23.8456 13.6502 24.2267 13.6502 24.6952C13.6502 25.1636 13.269 25.5447 12.8006 25.5447C12.3321 25.5447 11.951 25.1636 11.951 24.6952C11.951 24.2267 12.3321 23.8456 12.8006 23.8456Z" fill="#FFEDF0"/>
<path d="M18.8043 24.6952C18.8043 26.1006 19.9477 27.2439 21.3531 27.2439C22.7585 27.2439 23.9019 26.1006 23.9019 24.6952C23.9019 23.2897 22.7585 22.1464 21.3531 22.1464C19.9477 22.1464 18.8043 23.2897 18.8043 24.6952ZM21.3531 23.8456C21.8216 23.8456 22.2027 24.2267 22.2027 24.6952C22.2027 25.1636 21.8216 25.5447 21.3531 25.5447C20.8846 25.5447 20.5035 25.1636 20.5035 24.6952C20.5035 24.2267 20.8846 23.8456 21.3531 23.8456Z" fill="#FFEDF0"/>
<path d="M28.15 5.15447H6.6448C6.3539 4.13615 6.08282 3.18732 5.84998 2.37233C5.74582 2.00757 5.41238 1.75609 5.03306 1.75609H0.849596C0.380392 1.75609 0 2.13648 0 2.60568C0 3.07489 0.380392 3.45528 0.849596 3.45528H4.39219C5.34226 6.78094 7.56333 14.5549 8.49449 17.814L8.17261 18.4577C7.32442 20.1543 8.55968 22.1464 10.4524 22.1464H24.7516C25.2208 22.1464 25.6012 21.766 25.6012 21.2968C25.6012 20.8276 25.2208 20.4472 24.7516 20.4472H10.4524C9.82048 20.4472 9.41013 19.7824 9.69242 19.2177L9.92725 18.748H24.7516C25.1309 18.748 25.4643 18.4966 25.5685 18.1318L28.9669 6.23748C29.1217 5.69572 28.7146 5.15447 28.15 5.15447ZM24.1107 17.0488H10.0431C9.58016 15.4285 8.28458 10.8941 7.13026 6.85367H27.0237L24.1107 17.0488Z" fill="#FFEDF0"/>
</svg>
