<svg width="46" height="46" viewBox="0 0 46 46" fill="none" xmlns="http://www.w3.org/2000/svg">
<path d="M8.48424 39.1014L5.25562 2.875H40.7446L37.5117 39.0957L22.9786 43.125L8.48424 39.1014Z" fill="#1572B6"/>
<path d="M23 40.0458L34.7444 36.7899L37.5072 5.83765H23V40.0458Z" fill="#33A9DC"/>
<path d="M23 18.9621H28.8794L29.2847 14.4124H23V9.96912H23.0158H34.1406L34.0343 11.1608L32.9432 23.4054H23V18.9621Z" fill="white"/>
<path d="M23.0273 30.5009L23.0072 30.5067L18.0593 29.1698L17.743 25.6263H15.3381H13.2825L13.9049 32.6025L23.0057 35.1297L23.0273 35.1239V30.5009Z" fill="#EBEBEB"/>
<path d="M28.5013 23.217L27.9665 29.1669L23.0115 30.5037V35.1267L32.1195 32.6025L32.187 31.8521L32.959 23.217H28.5013Z" fill="white"/>
<path d="M23.0158 9.96912V12.7291V14.4009V14.4124H12.2978H12.2834L12.1943 13.4134L11.9916 11.1608L11.8853 9.96912H23.0158Z" fill="#EBEBEB"/>
<path d="M23.0001 18.962V21.722V23.3938V23.4053H18.1284H18.114L18.0249 22.4063L17.8237 20.1537L17.7173 18.962H23.0001Z" fill="#EBEBEB"/>
</svg>
