<svg width="15" height="15" viewBox="0 0 15 15" fill="none" xmlns="http://www.w3.org/2000/svg">
<path d="M5.07734 14.9998C3.40992 9.5054 6.93314 7.49925 6.93314 7.49925C6.68663 10.4311 8.35274 12.7152 8.35274 12.7152C8.96551 12.5304 10.1351 11.6663 10.1351 11.6663C10.1351 12.7152 9.51797 14.9985 9.51797 14.9985C9.51797 14.9985 11.6784 13.328 12.3585 10.5535C13.0377 7.77897 11.0648 4.99353 11.0648 4.99353C11.1836 6.95728 10.5193 8.88869 9.2177 10.3642C9.28283 10.2891 9.33746 10.2056 9.37942 10.1151C9.61325 9.64745 9.98869 8.43196 9.76885 5.61722C9.4594 1.66611 5.87936 0 5.87936 0C6.18793 2.40738 5.26266 2.96202 3.09523 7.53159C0.927796 12.1003 5.07734 14.9998 5.07734 14.9998Z" fill="#D2334D"/>
</svg>
