<svg width="46" height="46" viewBox="0 0 46 46" fill="none" xmlns="http://www.w3.org/2000/svg">
<path d="M8.48421 39.1014L5.25415 2.875H40.746L37.5117 39.0957L22.9785 43.125L8.48421 39.1014Z" fill="#E44F26"/>
<path d="M23 40.0458L34.7444 36.7899L37.5072 5.83765H23V40.0458Z" fill="#F1662A"/>
<path d="M23 19.2725H17.1206L16.7153 14.7229H23V10.2795H22.9842H11.8594L11.9658 11.4727L13.0568 23.7159H23V19.2725Z" fill="#EBEBEB"/>
<path d="M22.9999 30.8114L22.9798 30.8171L18.0319 29.4817L17.7157 25.9382H15.3108H13.2551L13.8776 32.913L22.9798 35.4401L22.9999 35.4344V30.8114Z" fill="#EBEBEB"/>
<path d="M22.9841 19.2726V23.7159H28.4553L27.9406 29.4788L22.9841 30.8157V35.4387L32.0936 32.913L32.1597 32.1626L33.2033 20.4657L33.3126 19.2726H32.1151H22.9841Z" fill="white"/>
<path d="M22.9841 10.2795V13.0395V14.7128V14.7229H33.7021H33.7165L33.8056 13.7252L34.0083 11.4727L34.1147 10.2795H22.9841Z" fill="white"/>
</svg>
