<svg width="28" height="28" viewBox="0 0 28 28" fill="none" xmlns="http://www.w3.org/2000/svg">
<circle cx="14" cy="14" r="14" fill="url(#paint0_linear_2815_424)"/>
<path d="M18.6066 8.3999H10.0935C9.13233 8.3999 8.40002 9.13221 8.40002 10.0934V18.6064C8.40002 19.5676 9.13233 20.2999 10.0935 20.2999H18.6066C19.5677 20.2999 20.3 19.5676 20.3 18.6064V10.0934C20.3 9.13221 19.5677 8.3999 18.6066 8.3999ZM14.35 17.9199C16.3181 17.9199 17.92 16.3637 17.92 14.4872C17.92 14.1668 17.8743 13.8007 17.7827 13.5261H18.7896V18.3776C18.7896 18.6064 18.6066 18.8353 18.3319 18.8353H10.3681C10.1393 18.8353 9.91041 18.6522 9.91041 18.3776V13.4803H10.9631C10.8716 13.8007 10.8258 14.1211 10.8258 14.4414C10.78 16.3637 12.3819 17.9199 14.35 17.9199ZM14.35 16.5468C13.0685 16.5468 12.0616 15.5399 12.0616 14.3041C12.0616 13.0684 13.0685 12.0614 14.35 12.0614C15.6316 12.0614 16.6385 13.0684 16.6385 14.3041C16.6385 15.5857 15.6316 16.5468 14.35 16.5468ZM18.7439 11.6495C18.7439 11.9241 18.515 12.153 18.2404 12.153H16.9589C16.6843 12.153 16.4554 11.9241 16.4554 11.6495V10.4137C16.4554 10.1391 16.6843 9.91029 16.9589 9.91029H18.2404C18.515 9.91029 18.7439 10.1391 18.7439 10.4137V11.6495Z" fill="white"/>
<defs>
<linearGradient id="paint0_linear_2815_424" x1="5.95" y1="24.85" x2="24.5" y2="5.6" gradientUnits="userSpaceOnUse">
<stop stop-color="#EEA054"/>
<stop offset="0.502762" stop-color="#D64763"/>
<stop offset="1" stop-color="#B62A99"/>
</linearGradient>
</defs>
</svg>
