<svg width="36" height="25" viewBox="0 0 36 25" fill="none" xmlns="http://www.w3.org/2000/svg">
<path d="M21.9876 17.3187C22.4335 18.2228 23.1255 18.9826 23.984 19.511C24.8424 20.0394 25.8326 20.3149 26.8406 20.3059C28.879 20.3059 30.1813 19.2867 30.1813 17.8794C30.1813 16.1932 28.843 15.5952 26.6005 14.6134L25.37 14.0858C21.8208 12.5735 19.4619 10.6789 19.4619 6.67404C19.4619 2.98398 22.2736 0.17654 26.6666 0.17654C28.0924 0.073084 29.5171 0.39222 30.7625 1.09405C32.0079 1.79588 33.0187 2.84925 33.6687 4.12248L29.8378 6.58204C29.5869 5.95112 29.15 5.41146 28.5852 5.03479C28.0203 4.65811 27.3541 4.46225 26.6753 4.47323C26.3794 4.44345 26.0805 4.47567 25.7977 4.56782C25.515 4.65998 25.2545 4.81005 25.033 5.00846C24.8114 5.20687 24.6337 5.44927 24.511 5.7202C24.3884 5.99114 24.3235 6.28465 24.3206 6.58204C24.3206 8.05835 25.2349 8.65491 27.3394 9.56917L28.5699 10.0953C32.7501 11.8879 35.1091 13.7149 35.1091 17.8233C35.1091 22.2522 31.6303 24.6787 26.957 24.6787C25.1367 24.7945 23.3217 24.3811 21.7311 23.4884C20.1405 22.5956 18.8421 21.2617 17.9928 19.6475L21.9876 17.3187ZM4.61108 17.75C5.38445 19.1214 6.08739 20.28 7.77358 20.28C9.38933 20.28 10.41 19.6475 10.41 17.1894V0.46404H15.3291V17.2584C15.3291 22.3514 12.342 24.6701 7.98345 24.6701C6.44388 24.7534 4.91513 24.3688 3.59835 23.5667C2.28157 22.7646 1.23844 21.5827 0.606201 20.1765L4.61108 17.75Z" fill="#F5DE19"/>
</svg>
