<svg width="18" height="18" viewBox="0 0 18 18" fill="none" xmlns="http://www.w3.org/2000/svg">
<path d="M14.9248 10.6657C14.5464 10.2735 14.0901 10.0638 13.6065 10.0638C13.1267 10.0638 12.6665 10.2696 12.2726 10.6618L11.0401 11.8849C10.9387 11.8306 10.8373 11.7801 10.7398 11.7296C10.5994 11.6597 10.4667 11.5937 10.3536 11.5238C9.19915 10.7938 8.14997 9.84251 7.14369 8.61163C6.65616 7.99813 6.32853 7.4817 6.09062 6.9575C6.41044 6.66629 6.70686 6.36342 6.99548 6.0722C7.10469 5.96348 7.2139 5.85087 7.32311 5.74215C8.14217 4.92674 8.14217 3.87059 7.32311 3.05517L6.25833 1.99514C6.13742 1.87477 6.01261 1.75052 5.8956 1.62626C5.66159 1.38552 5.41587 1.13702 5.16235 0.90404C4.78402 0.531281 4.33159 0.333252 3.85575 0.333252C3.37992 0.333252 2.91968 0.531281 2.52965 0.90404C2.52575 0.907923 2.52575 0.907923 2.52185 0.911806L1.19576 2.24365C0.696518 2.74066 0.411797 3.34639 0.349393 4.0492C0.255786 5.18301 0.59121 6.23916 0.84863 6.93032C1.48048 8.62716 2.42435 10.1997 3.83235 11.8849C5.54068 13.9157 7.59613 15.5193 9.9441 16.6493C10.8412 17.0725 12.0386 17.5734 13.3764 17.6588C13.4583 17.6627 13.5441 17.6666 13.6221 17.6666C14.523 17.6666 15.2797 17.3443 15.8725 16.7036C15.8764 16.6959 15.8842 16.692 15.8881 16.6842C16.091 16.4396 16.325 16.2183 16.5707 15.9814C16.7384 15.8222 16.91 15.6552 17.0777 15.4805C17.4639 15.0806 17.6667 14.6146 17.6667 14.137C17.6667 13.6555 17.46 13.1935 17.066 12.8052L14.9248 10.6657ZM16.3211 14.7544C16.3172 14.7544 16.3172 14.7583 16.3211 14.7544C16.169 14.9175 16.013 15.065 15.8452 15.2281C15.5917 15.4689 15.3343 15.7212 15.0925 16.0047C14.6986 16.424 14.2344 16.6221 13.626 16.6221C13.5675 16.6221 13.5051 16.6221 13.4466 16.6182C12.2882 16.5444 11.2117 16.094 10.4043 15.7096C8.19677 14.6457 6.25833 13.1352 4.64751 11.2209C3.31751 9.62507 2.42825 8.14956 1.8393 6.56533C1.47658 5.59848 1.34397 4.8452 1.40247 4.13463C1.44147 3.68032 1.61699 3.30368 1.94071 2.9814L3.27071 1.65733C3.46182 1.47871 3.66464 1.38164 3.86355 1.38164C4.10927 1.38164 4.30819 1.52919 4.43299 1.65344C4.43689 1.65733 4.44079 1.66121 4.4447 1.66509C4.68261 1.88642 4.90883 2.11551 5.14675 2.36013C5.26766 2.48439 5.39247 2.60864 5.51727 2.73678L6.58205 3.79681C6.99548 4.2084 6.99548 4.58893 6.58205 5.00052C6.46895 5.11312 6.35974 5.22572 6.24663 5.33444C5.919 5.66838 5.60698 5.97901 5.26766 6.28188C5.25986 6.28964 5.25206 6.29353 5.24816 6.30129C4.91273 6.63522 4.97513 6.96139 5.04534 7.18271C5.04924 7.19436 5.05314 7.20601 5.05704 7.21766C5.33396 7.88552 5.72399 8.51455 6.31683 9.26396L6.32073 9.26784C7.39721 10.588 8.5322 11.617 9.78419 12.4052C9.9441 12.5062 10.1079 12.5877 10.2639 12.6654C10.4043 12.7353 10.5369 12.8013 10.6501 12.8712C10.6657 12.8789 10.6813 12.8906 10.6969 12.8984C10.8295 12.9644 10.9543 12.9954 11.083 12.9954C11.4067 12.9954 11.6095 12.7935 11.6758 12.7275L13.0097 11.3996C13.1423 11.2675 13.353 11.1083 13.5987 11.1083C13.8405 11.1083 14.0394 11.2598 14.1603 11.3918C14.1642 11.3957 14.1642 11.3957 14.1681 11.3996L16.3172 13.539C16.7189 13.9351 16.7189 14.3428 16.3211 14.7544Z" fill="#D2334D" stroke="#D2334D" stroke-width="0.3"/>
</svg>
