<svg width="64" height="64" viewBox="0 0 64 64" fill="none" xmlns="http://www.w3.org/2000/svg">
<path d="M32.0015 0C14.356 0 0.00149536 14.3545 0.00149536 32C0.00149536 49.6445 14.356 64 32.0015 64C49.645 64 63.9985 49.6445 63.9985 32C63.9985 14.3545 49.645 0 32.0015 0ZM22.721 15.0115C26.976 15.0115 30.439 18.4735 30.439 22.7305C30.439 26.9855 26.976 30.4485 22.721 30.4485C18.4645 30.4485 15.002 26.9855 15.002 22.7305C15.002 18.4735 18.465 15.0115 22.721 15.0115ZM20.3745 46.456C19.9845 46.847 19.471 47.043 18.9595 47.043C18.4475 47.043 17.935 46.847 17.544 46.456C16.7625 45.6745 16.7625 44.4065 17.544 43.626L43.6255 17.5435C44.4065 16.762 45.674 16.762 46.456 17.5435C47.2375 18.325 47.2375 19.593 46.456 20.374L20.3745 46.456ZM41.238 48.964C36.982 48.964 33.519 45.5015 33.519 41.245C33.519 36.99 36.982 33.527 41.238 33.527C45.4935 33.527 48.956 36.99 48.956 41.245C48.9555 45.5015 45.493 48.964 41.238 48.964Z" fill="#D2334D"/>
</svg>
