<svg width="12" height="12" viewBox="0 0 12 12" fill="none" xmlns="http://www.w3.org/2000/svg">
<g clip-path="url(#clip0_103_163)">
<path d="M8.30354 7.1208C9.74401 5.08673 9.26225 2.27014 7.22818 0.830012C5.19411 -0.610115 2.37751 -0.128696 0.937388 1.90572C-0.502739 3.93979 -0.02132 6.75604 2.0131 8.19617C3.46492 9.22404 5.3844 9.30319 6.91572 8.39885L10.243 11.7062C10.6022 12.0843 11.2 12.0995 11.5782 11.7402C11.9563 11.3813 11.9715 10.7836 11.6126 10.4054C11.6012 10.3933 11.5902 10.3823 11.5782 10.371L8.30354 7.1208ZM4.61771 7.42913C3.01034 7.42948 1.70718 6.12734 1.70614 4.51997C1.7058 2.9126 3.00794 1.60944 4.61565 1.60875C6.22095 1.60806 7.52343 2.90813 7.52653 4.51343C7.52928 6.12115 6.22783 7.42638 4.61978 7.42913C4.61909 7.42913 4.61874 7.42913 4.61771 7.42913Z" fill="#D0334D"/>
</g>
<defs>
<clipPath id="clip0_103_163">
<rect width="12" height="12" fill="white"/>
</clipPath>
</defs>
</svg>
