<svg width="12" height="12" viewBox="0 0 12 12" fill="none" xmlns="http://www.w3.org/2000/svg">
<g clip-path="url(#clip0_157_1109)">
<path d="M11.6357 4.7108L11.6358 4.71119C11.6716 4.82135 11.6385 4.94134 11.5512 5.01769L11.5509 5.01794L8.93291 7.3135L8.7762 7.45091L8.82234 7.65415L9.59429 11.0546C9.61994 11.1678 9.57608 11.2843 9.48224 11.3524L9.48221 11.3524C9.38853 11.4203 9.26491 11.4253 9.16702 11.3664L9.1662 11.3659L6.17967 9.58034L6.0001 9.47297L5.82051 9.58031L2.83288 11.3659L2.83272 11.366C2.78592 11.394 2.73549 11.4073 2.68549 11.4073C2.62718 11.4073 2.56853 11.3893 2.51699 11.3521C2.42375 11.2847 2.37955 11.1685 2.40532 11.0544L3.17723 7.65415L3.22337 7.45093L3.06669 7.31352L0.448676 5.01751L0.448012 5.01693C0.36167 4.94159 0.328386 4.82166 0.364247 4.71137C0.400059 4.60124 0.496861 4.52383 0.611944 4.51312C0.612005 4.51311 0.612066 4.51311 0.612127 4.5131L4.07563 4.19866L4.28373 4.17977L4.36584 3.98763L5.73523 0.782976C5.73524 0.782948 5.73525 0.782919 5.73527 0.78289C5.78136 0.675507 5.8852 0.607477 6.00006 0.607477C6.11501 0.607477 6.21887 0.675594 6.26491 0.782465C6.26495 0.782543 6.26498 0.782621 6.26501 0.782699L7.63428 3.98761L7.71638 4.17977L7.92449 4.19866L11.388 4.51316L11.3883 4.51318C11.5033 4.52355 11.6002 4.60115 11.6357 4.7108Z" stroke="#FFC107" stroke-width="0.7"/>
</g>
<defs>
<clipPath id="clip0_157_1109">
<rect width="12" height="12" fill="white"/>
</clipPath>
</defs>
</svg>
