<svg width="32" height="32" viewBox="0 0 32 32" fill="none" xmlns="http://www.w3.org/2000/svg">
<path d="M20.0411 5.03094H2.66972C2.15763 5.03094 1.75543 5.43314 1.75543 5.94523V16.9167C1.75543 17.4194 2.15763 17.831 2.66972 17.831H20.0411C20.544 17.831 20.9554 17.4194 20.9554 16.9167V5.94523C20.9554 5.43314 20.5441 5.03094 20.0411 5.03094Z" fill="white"/>
<path d="M1.74628 22.4024C1.74628 22.9051 2.15771 23.3166 2.66056 23.3166H3.64799C4.03199 21.4057 5.60456 19.9064 7.56114 19.6595H2.66971C2.34047 19.6595 2.03894 19.6046 1.74628 19.4948V22.4024Z" fill="white"/>
<path d="M28.2057 23.3167H29.3394C29.8423 23.3167 30.2537 22.9052 30.2537 22.4024V14.3932C30.2537 12.9577 26.752 9.60239 24.8321 9.60239H22.7841V16.9167C22.7841 18.4252 21.5497 19.6595 20.0412 19.6595H8.74963C10.7063 19.9064 12.2789 21.4057 12.6628 23.3167H19.1908C19.6114 21.2138 21.4674 19.6138 23.6983 19.6138C25.92 19.6137 27.7852 21.2137 28.2057 23.3167ZM24.2834 11.8514C28.9646 11.6229 28.7727 16.4594 28.7727 16.4594H24.2834V11.8514Z" fill="white"/>
<path d="M23.6946 26.9687C25.2196 26.9687 26.4558 25.7325 26.4558 24.2076C26.4558 22.6826 25.2196 21.4464 23.6946 21.4464C22.1697 21.4464 20.9335 22.6826 20.9335 24.2076C20.9335 25.7325 22.1697 26.9687 23.6946 26.9687Z" fill="white"/>
<path d="M8.15177 26.9687C9.67671 26.9687 10.9129 25.7325 10.9129 24.2076C10.9129 22.6826 9.67671 21.4464 8.15177 21.4464C6.62683 21.4464 5.39062 22.6826 5.39062 24.2076C5.39062 25.7325 6.62683 26.9687 8.15177 26.9687Z" fill="white"/>
</svg>
