<svg width="28" height="28" viewBox="0 0 28 28" fill="none" xmlns="http://www.w3.org/2000/svg">
<circle cx="14" cy="14" r="14" fill="#7294C7"/>
<path d="M20.8643 17.5807C20.8643 17.5226 20.8062 17.5226 20.8062 17.4645C20.5737 16.9996 20.0506 16.4184 19.3533 15.7791C19.0046 15.4886 18.8302 15.2561 18.714 15.1399C18.5396 14.9074 18.5396 14.733 18.5978 14.5006C18.6559 14.3262 18.8883 14.0356 19.2951 13.5126C19.5276 13.222 19.6438 13.0477 19.8182 12.8733C20.6899 11.711 21.0967 10.9555 20.9805 10.6068L20.9224 10.5487C20.8643 10.4906 20.8061 10.4325 20.6899 10.4325C20.5737 10.3743 20.3993 10.3743 20.225 10.4325H18.0166C17.9585 10.4325 17.9585 10.4325 17.8422 10.4325C17.7841 10.4325 17.726 10.4325 17.726 10.4325H17.6679H17.6098L17.5517 10.4906C17.4935 10.5487 17.4935 10.5487 17.4935 10.6068C17.2611 11.2461 16.9705 11.7691 16.6799 12.3503C16.5056 12.6409 16.3312 12.9314 16.1569 13.1639C15.9825 13.3964 15.8663 13.5707 15.7501 13.687C15.6338 13.8032 15.5176 13.8613 15.4595 13.9775C15.4014 14.0356 15.2851 14.0938 15.2851 14.0357C15.227 14.0357 15.1689 14.0356 15.1689 13.9775C15.1108 13.9194 15.0527 13.8613 14.9945 13.8032C14.9364 13.7451 14.9364 13.6288 14.8783 13.5126C14.8783 13.3964 14.8783 13.2801 14.8783 13.222C14.8783 13.1639 14.8783 12.9896 14.8783 12.8733C14.8783 12.699 14.8783 12.5827 14.8783 12.5246C14.8783 12.3503 14.8783 12.1178 14.8783 11.8854C14.8783 11.6529 14.8783 11.4785 14.8783 11.3623C14.8783 11.2461 14.8783 11.0717 14.8783 10.9555C14.8783 10.7812 14.8783 10.6649 14.8783 10.6068C14.8783 10.5487 14.8202 10.4325 14.8202 10.3743C14.7621 10.3162 14.704 10.2581 14.6458 10.2C14.5877 10.1419 14.4715 10.1419 14.4134 10.0838C14.1228 10.0256 13.7741 9.96753 13.3673 9.96753C12.4374 9.96753 11.7982 10.0256 11.5657 10.1419C11.4495 10.2 11.3332 10.2581 11.2751 10.3743C11.1589 10.4906 11.1589 10.5487 11.217 10.5487C11.5076 10.6068 11.7401 10.723 11.8563 10.8974L11.9144 11.0136C11.9725 11.0717 11.9725 11.188 12.0306 11.3623C12.0887 11.5367 12.0887 11.711 12.0887 11.9435C12.0887 12.2922 12.0887 12.6409 12.0887 12.8733C12.0887 13.1639 12.0306 13.3383 12.0306 13.5126C12.0306 13.687 11.9725 13.8032 11.9144 13.8613C11.8563 13.9775 11.8563 14.0357 11.7982 14.0357C11.7982 14.0357 11.7982 14.0938 11.74 14.0938C11.6819 14.0938 11.6238 14.1519 11.5076 14.1519C11.4495 14.1519 11.3332 14.0938 11.2751 14.0357C11.1589 13.9775 11.0427 13.8613 10.9845 13.7451C10.8683 13.6288 10.7521 13.4545 10.6358 13.222C10.5196 12.9896 10.3453 12.7571 10.229 12.4084L10.1128 12.1759C10.0547 12.0597 9.93846 11.8272 9.82222 11.5367C9.70599 11.2461 9.58976 11.0136 9.47352 10.723C9.41541 10.6068 9.3573 10.5487 9.29918 10.4906H9.24106C9.24106 10.4906 9.18294 10.4325 9.12482 10.4325C9.06671 10.4325 9.0086 10.3743 8.95048 10.3743H6.8583C6.62584 10.3743 6.50961 10.4325 6.45149 10.4906L6.39337 10.5487C6.39337 10.5487 6.39337 10.6068 6.39337 10.6649C6.39337 10.723 6.39338 10.7811 6.45149 10.8974C6.74207 11.5948 7.09077 12.2922 7.43946 12.9896C7.78816 13.6288 8.13686 14.21 8.36932 14.6168C8.6599 15.0236 8.89236 15.4304 9.18294 15.7791C9.47352 16.1278 9.64787 16.3603 9.70598 16.4765C9.82222 16.5928 9.88033 16.6509 9.93845 16.709L10.1128 16.8833C10.229 16.9996 10.4034 17.1739 10.6358 17.3483C10.8683 17.5226 11.1589 17.697 11.4495 17.8713C11.74 18.0457 12.0887 18.1619 12.4374 18.2781C12.8443 18.3944 13.193 18.4525 13.5416 18.3944H14.4134C14.5877 18.3944 14.704 18.3362 14.8202 18.22L14.8783 18.1619C14.8783 18.1038 14.9364 18.1038 14.9364 18.0457C14.9364 17.9875 14.9364 17.9294 14.9364 17.8132C14.9364 17.5807 14.9364 17.4064 14.9945 17.232C15.0527 17.0577 15.0527 16.9415 15.1108 16.8252C15.1689 16.709 15.227 16.6509 15.2851 16.5928C15.3432 16.5346 15.4014 16.4765 15.4014 16.4765H15.4595C15.5757 16.4184 15.7501 16.4765 15.8663 16.5928C16.0406 16.709 16.215 16.8833 16.3312 17.0577C16.4474 17.232 16.6218 17.4064 16.8543 17.6388C17.0867 17.8713 17.2611 18.0457 17.3773 18.1038L17.5517 18.22C17.6679 18.2781 17.7841 18.3362 17.9585 18.3944C18.1328 18.4525 18.249 18.4525 18.3653 18.4525L20.3412 18.3944C20.5156 18.3944 20.6899 18.3362 20.8062 18.2781C20.9224 18.22 20.9805 18.1619 20.9805 18.0457C20.9805 17.9875 20.9805 17.8713 20.9805 17.8132C20.8643 17.697 20.8643 17.6388 20.8643 17.5807Z" fill="white"/>
</svg>
